<?xml version="1.0" standalone="no"?>
<!DOCTYPE svg PUBLIC "-//W3C//DTD SVG 20010904//EN"
 "http://www.w3.org/TR/2001/REC-SVG-20010904/DTD/svg10.dtd">
<svg version="1.0" xmlns="http://www.w3.org/2000/svg"
 width="700.000000pt" height="700.000000pt" viewBox="0 0 700.000000 700.000000"
 preserveAspectRatio="xMidYMid meet">
<metadata>
Created by potrace 1.14, written by Peter Selinger 2001-2017
</metadata>
<g transform="translate(0.000000,700.000000) scale(0.100000,-0.100000)"
fill="#000000" stroke="none">
<path d="M6030 5622 c-138 -20 -324 -96 -459 -186 -148 -100 -188 -140 -370
-361 -16 -20 -78 -100 -93 -120 -4 -5 -18 -23 -31 -40 -58 -73 -375 -506 -442
-603 -40 -59 -102 -155 -137 -213 l-64 -106 -56 71 c-104 131 -214 234 -344
321 -85 57 -243 138 -306 157 -21 6 -38 17 -38 24 0 15 80 216 110 275 92 180
240 307 401 343 34 8 53 18 55 28 5 35 -76 41 -500 35 -220 -4 -417 -8 -436
-10 -19 -3 -78 -8 -130 -12 -92 -6 -112 -8 -210 -20 -84 -10 -125 -16 -220
-31 -52 -9 -108 -18 -125 -20 -54 -9 -298 -64 -375 -85 -620 -168 -1094 -472
-1422 -911 -202 -270 -359 -613 -433 -944 -12 -54 -17 -89 -31 -199 -10 -77
-4 -318 10 -405 57 -348 208 -654 435 -880 252 -251 536 -365 881 -354 63 2
129 6 145 9 198 39 286 69 394 132 156 93 296 278 315 416 6 43 5 47 -14 47
-16 0 -27 -14 -46 -57 -98 -228 -217 -337 -464 -426 -45 -16 -157 -44 -215
-54 -67 -11 -234 -9 -313 4 -470 75 -849 453 -982 979 -35 140 -45 218 -44
374 0 172 20 312 74 505 136 484 405 879 815 1198 89 69 278 197 291 197 4 0
15 6 23 14 27 24 310 162 432 209 245 97 441 146 838 212 13 2 58 7 100 11 42
3 83 8 92 9 47 9 316 18 557 19 224 1 276 -1 285 -13 9 -11 8 -16 -7 -25 -164
-98 -288 -229 -370 -393 -40 -81 -80 -120 -129 -129 -23 -4 -44 -7 -47 -7 -13
3 -249 16 -285 16 -264 -1 -521 -92 -696 -248 -220 -195 -282 -563 -134 -783
79 -116 181 -194 379 -287 210 -99 378 -159 506 -181 86 -15 82 -12 76 -62 -3
-26 -8 -56 -10 -67 -81 -381 -126 -527 -213 -700 -71 -141 -161 -266 -264
-367 -34 -33 -53 -58 -46 -61 26 -10 155 6 197 24 24 11 98 52 165 91 183 110
245 175 724 768 122 151 237 293 256 316 33 41 34 41 182 72 81 18 159 34 173
36 14 3 67 13 119 24 l93 20 -5 -112 c-3 -61 -8 -122 -10 -136 -31 -202 -140
-366 -293 -441 -102 -50 -234 -52 -359 -4 -16 6 -13 1 10 -24 40 -44 65 -53
159 -56 196 -8 365 91 445 259 31 64 75 226 85 311 4 28 9 70 12 95 8 66 32
126 57 143 12 7 72 31 132 52 61 21 130 47 155 57 25 11 63 27 85 36 80 33
302 150 393 206 202 126 372 263 555 448 288 293 451 550 527 828 67 249 32
454 -103 597 -91 97 -206 144 -357 147 -47 1 -96 1 -110 -2z m368 -168 c71
-32 126 -93 147 -162 56 -177 -35 -505 -219 -787 -91 -139 -192 -260 -356
-425 -248 -251 -478 -421 -774 -575 -169 -88 -460 -205 -474 -191 -9 10 -152
451 -152 471 0 22 279 439 438 653 362 491 692 791 1088 991 111 56 215 65
302 25z m-2972 -896 c23 -7 43 -16 44 -21 2 -7 -9 -113 -15 -147 -2 -8 -6 -37
-9 -65 -4 -27 -9 -61 -11 -75 -2 -14 -9 -61 -15 -105 -6 -44 -13 -91 -15 -105
-2 -14 -16 -108 -30 -210 -14 -102 -28 -201 -30 -220 -3 -19 -10 -66 -16 -105
-5 -38 -11 -81 -13 -95 -3 -14 -10 -65 -16 -115 -7 -49 -13 -94 -14 -100 -1
-5 -5 -12 -9 -14 -6 -2 -83 7 -107 14 -3 1 -32 7 -65 14 -79 18 -215 66 -290
103 -198 100 -333 237 -387 396 -33 97 -32 268 1 367 52 154 127 252 261 340
117 77 284 138 414 151 34 4 63 8 65 10 9 8 221 -7 257 -18z m430 -131 c104
-52 240 -147 323 -223 80 -74 186 -199 200 -236 11 -29 2 -71 -24 -116 -11
-18 -104 -178 -206 -355 -144 -249 -194 -326 -216 -337 -23 -12 -63 -16 -179
-15 l-149 0 1 100 c1 99 10 345 19 506 6 108 13 254 21 454 3 88 8 178 9 200
2 22 4 54 4 72 l1 31 63 -22 c34 -13 94 -39 133 -59z m688 -724 c3 -10 30
-105 61 -212 51 -181 63 -232 49 -219 -3 3 -29 0 -57 -8 -29 -7 -63 -15 -77
-18 -14 -2 -96 -21 -183 -41 -87 -20 -161 -34 -165 -31 -9 10 20 60 173 291
156 235 170 255 184 255 5 0 12 -8 15 -17z m-657 -651 c-138 -316 -505 -784
-737 -942 l-35 -24 20 24 c11 14 35 42 54 62 153 167 316 494 365 733 33 156
44 173 125 177 31 2 93 2 138 0 l82 -3 -12 -27z"/>
</g>
</svg>
